PathFileType	4	(X/Y/Z)	Patient4_TMGait_0pt6_02_left_28.trc.trc
DataRate	CameraRate	NumFrames	NumMarkers	Units	OrigDataRate	OrigDataStartFrame	OrigNumFrames
81.395348837209	81.395348837209	6	33	mm	81.395348837209	71	       141
Frame#	Time	Sacral			L.Shoulder			Chest			R.Shoulder			Neck			R.ASIS			L.ASIS			R.Thigh.Superior			R.Thigh.Lateral			R.Thigh.Inferior			R.Patella			L.Thigh.Superior			L.Thigh.Lateral			L.Thigh.Inferior			L.Patella			L.Shank.Superior			L.Shank.Lateral			L.Shank.Inferior			R.Shank.Superior			R.Shank.Lateral			R.Shank.Inferior			R.Heel			R.Midfoot.Superior			R.Midfoot.Lateral			R.Toe			L.Heel			L.Midfoot.Lateral			L.Midfoot.Superior			L.Toe			L.Elbow			L.Wrist			R.Elbow			R.Wrist			
		X1	Y1	Z1	X2	Y2	Z2	X3	Y3	Z3	X4	Y4	Z4	X5	Y5	Z5	X6	Y6	Z6	X7	Y7	Z7	X8	Y8	Z8	X9	Y9	Z9	X10	Y10	Z10	X11	Y11	Z11	X12	Y12	Z12	X13	Y13	Z13	X14	Y14	Z14	X15	Y15	Z15	X16	Y16	Z16	X17	Y17	Z17	X18	Y18	Z18	X19	Y19	Z19	X20	Y20	Z20	X21	Y21	Z21	X22	Y22	Z22	X23	Y23	Z23	X24	Y24	Z24	X25	Y25	Z25	X26	Y26	Z26	X27	Y27	Z27	X28	Y28	Z28	X29	Y29	Z29	X30	Y30	Z30	X31	Y31	Z31	X32	Y32	Z32	X33	Y33	Z33	

71	35.080000000000	906.028984593944	1018.674676050303	435.438456014142	1148.026255328715	1429.894740472535	271.040579493958	1222.688937987784	1348.937421122082	441.769694820134	1127.141571242827	1435.147590710687	602.477527417689	1137.450014743117	1490.688047957014	420.805334123829	1118.468133631465	948.482099828392	576.145496727821	1126.389581501603	954.884153325427	295.047103012741	1193.732837465537	780.833720852338	551.990897808015	1154.973898807039	663.010616787765	629.892797183264	1240.874770831746	621.969036795727	547.935659285592	1277.893293914518	539.635769444520	569.888760768946	1133.892766841093	730.786023118741	340.548516196645	1026.898399005773	632.497718816110	272.035204483058	1083.481364526103	541.823377058288	344.962549884558	1067.939958962945	474.471584292567	355.114160817145	1032.916071656787	408.339588515320	345.463102163907	930.184069571229	307.513449580831	292.507075944739	958.377277542762	191.767859793106	367.505254756076	1260.091375792519	452.291557539286	584.083512153839	1207.387124804842	342.036445303553	654.152332191838	1274.265028552815	253.007423389205	604.248279600766	1179.542322078612	64.978869807344	585.884915228229	1344.396606284038	140.459830138167	619.151587741925	1268.373523974811	60.705693799339	653.884908956265	1470.417353469917	101.802381926945	634.793895738226	810.411985539719	46.964126092578	407.108879474874	885.532563060881	39.651524841939	328.894712073046	970.960132431635	97.378555622170	356.177577454163	1097.001838936280	39.226933548469	329.641350094713	1124.450971101807	1091.066186314183	126.217793112145	1341.471656298328	968.876668409477	191.554623834168	959.024271673914	1135.874715216359	718.311380831737	934.760521214554	876.037228406579	746.036853049744	
72	35.092285714286	907.076472360841	1016.343538207381	437.822874433812	1145.195168203350	1428.724051004682	272.253433317941	1221.316400917822	1348.531339519178	442.694009463628	1126.012301314532	1434.233148018966	603.772075707846	1135.215684181567	1489.603302126917	421.973634879805	1120.015449287395	946.519062617101	577.542386677144	1126.886875993727	953.548701604181	296.605746708280	1193.566858630372	776.628258315861	553.966237771904	1152.631772449224	658.956533479109	631.346818780439	1238.449511859160	617.372952882491	549.656492030181	1274.165674803035	535.735996651923	570.870297991840	1132.572587845175	728.999678666081	341.169133972170	1023.995272704425	631.986042878545	272.607760629543	1079.518369669422	540.511731574353	345.028809946572	1063.203130863708	473.396543284261	355.145650986075	1027.788858405719	407.548470388249	345.549689189827	924.238647250804	307.582959853995	292.557514183867	951.668445713734	191.531409536216	367.400863329830	1257.543901735267	448.477663882979	584.795281451371	1205.725081946223	337.248553427201	653.738004079460	1274.193184397731	249.392296110140	603.819838540945	1182.074662744986	60.502161120435	583.720983173685	1345.640513818521	137.515494938274	618.122193029206	1270.411496607327	56.913793613102	652.246808659490	1472.061099022828	100.038992053664	634.442957235886	803.026130381081	47.252296503709	407.017653307002	878.137805095598	39.741304798813	328.832570921985	963.596436155509	97.388687635917	356.069106936489	1089.561885023287	39.169277609998	329.606943209568	1128.231664060922	1089.047105684739	128.987481199013	1349.017780801730	975.882136036624	196.930036919718	958.101599319082	1134.969404659248	718.943092831829	933.967375540826	874.925720130341	745.379859329956	
73	35.104571428571	908.305475789136	1013.878936095775	440.472088604949	1142.226498341857	1427.452831914194	273.621903897841	1219.959785418797	1348.067322636669	443.704907331980	1124.960156678674	1433.183766470454	605.230617040387	1132.910777813160	1488.405970223927	423.308692607018	1121.817853934688	944.384076264189	579.060194264775	1127.644989832025	952.013671326650	298.570845872747	1193.946210879798	772.515357127032	556.012452315749	1150.636533244108	654.770089020988	632.466537754494	1236.695386270963	612.943385810764	551.306815622166	1270.890013959442	531.570945490334	571.591847323066	1131.371446490078	727.179619226668	341.830103983245	1021.172827618299	631.477338625721	273.285429241966	1075.700703403550	539.196878568146	345.141639986922	1058.645449980317	472.253195199367	355.220261193472	1022.773974475328	406.723072460267	345.665925517864	918.307384054417	307.692431041829	292.657428984727	944.964249210783	191.291927108364	367.296490972244	1254.834720490928	444.222706126257	585.142556020555	1202.964758715194	332.460334633676	652.851899352160	1272.247970448829	245.285522920242	602.933343501552	1181.135321094125	56.611065654508	581.090900788337	1343.955326075310	133.717115747715	616.632968103625	1268.825553543359	53.180482457646	650.304373523957	1470.390970733675	96.361032060841	633.913755067762	795.633439569015	47.552369688341	406.911597912449	870.740924079192	39.829309307649	328.761479208742	956.231157324912	97.403820400578	355.944334436704	1082.120620389693	39.108035378298	329.564807994402	1131.632708616868	1087.008920162731	132.028450403145	1355.979761946509	983.150591493008	202.169193222212	957.853973336363	1133.566914977017	719.853545257351	934.399829512455	873.245007841970	744.721865840738	
74	35.116857142857	909.685813734093	1011.337533330765	443.360170543441	1139.201841413714	1426.089354138045	275.158207785616	1218.654582280194	1347.537707124348	444.824958355390	1124.013272658712	1432.017767561998	606.862350017740	1130.599254591230	1487.116643905250	424.819084259593	1123.847139494509	942.124563451493	580.700144023511	1128.641735566163	950.346690018004	300.889279892173	1194.862307758083	768.531859039010	558.099865415530	1149.003952454892	650.538134148766	633.238514679668	1235.595739489268	608.743442648937	552.825520157953	1268.101190817501	527.240538478527	571.988020976633	1130.320715112059	725.353576755400	342.528306826201	1018.480300261512	630.971052717853	274.088879425876	1072.113654551333	537.883829606801	345.321753270383	1054.371443168962	471.021765901101	355.353541928439	1017.949250098933	405.851286521443	345.831817128472	912.446528130225	307.852499629301	292.829984879723	938.293361869305	191.051246125715	367.203235494362	1252.080609582076	439.642167121894	585.106660814782	1199.402484812005	327.723979300479	651.599379112471	1268.768006632501	240.763932654802	601.630048645386	1177.192811413987	53.223110865940	578.231721928606	1339.835903341598	129.187368769965	614.707582776413	1264.185576165428	49.569303651927	648.208038470252	1465.984793673041	91.051156146980	633.126092367775	788.232266906093	47.885662613582	406.786599971413	863.343416576518	39.920082297499	328.680491011853	948.877544717216	97.424661173617	355.799864871817	1074.683119314763	39.044027524840	329.515671761656	1134.622936046064	1084.954013109503	135.309378574453	1362.288752727293	990.578405773500	207.215402091866	958.290092345546	1131.695984162390	721.062796037412	936.050113999615	871.032498486807	744.118754660261	
75	35.129142857143	911.174374052939	1008.788286648391	446.452738376165	1136.206272462897	1424.657341692973	276.870191095193	1217.440120664465	1346.945128279327	446.073075596857	1123.207605696175	1430.767071839071	608.673394583974	1128.355224422343	1485.770074054263	426.510486826936	1126.062488787232	939.807689811551	582.456678347441	1129.824794960697	948.634174755598	303.476821799592	1196.273099466478	764.724320589349	560.187130492978	1147.755286697346	646.379778013200	633.686049893542	1235.098302237326	604.839483126277	554.155985912504	1265.811745345277	522.868411771818	572.025552203605	1129.460386149667	723.559252389945	343.259575386251	1015.984839268247	630.463952708742	275.040499498005	1068.868472651071	536.578347465526	345.591779957201	1050.514235312833	469.680887170704	355.558357003139	1013.412989929357	404.920085113479	346.068323925437	906.733243215530	308.080348713808	293.099316965089	931.699738172353	190.817474809377	367.131057520952	1249.399629173922	434.896267089259	584.707311558477	1195.371120899512	323.134068138144	650.113898469824	1264.154495812005	235.980761734076	599.983925401350	1170.859884515405	50.301483201792	575.379141722386	1333.862722682437	124.156526644301	612.408820989257	1257.191528543965	46.198880789439	646.108124968077	1459.506058298254	84.558740710369	632.033478803521	780.825017282169	48.291128796086	406.639576610284	855.948880552550	40.026357555541	328.589167656018	941.557522785389	97.453201346914	355.630392119715	1067.256749837408	38.979753790304	329.460256142750	1137.173339908930	1082.890337714176	138.798418493197	1367.882639812818	998.036613729229	212.014015956006	959.425228893293	1129.401049017987	722.581905349349	938.909444866828	868.344766802650	743.622126308650	
76	35.141428571429	912.716469215235	1006.311940455435	449.707880977980	1133.325414072912	1423.199419594245	278.759884576278	1216.356338316992	1346.305720345648	447.463003280993	1122.583896884698	1429.479045862679	610.664693255882	1126.259292865463	1484.416280095887	428.384518278418	1128.409153008294	937.520619569654	584.318992179913	1131.116809933388	946.974001225408	306.232680965766	1198.106294036452	761.162396830717	562.221371292044	1146.921885221209	642.444465944378	633.865826773594	1235.125455736258	601.307548928763	555.252106890717	1264.019609507738	518.603445040649	571.713069010582	1128.835503774112	721.846049060132	344.023424169272	1013.772788544344	629.951018626012	276.162346946147	1066.103548817000	535.289110726078	345.974269261327	1047.235663249280	468.211263392946	355.841629559414	1009.285750835195	403.918761564825	346.393744451886	901.267442836052	308.403192410649	293.488262490608	925.246378744218	190.609030893548	367.086833967444	1246.905402686228	430.181149889560	584.002649404043	1191.209453261574	318.821114570841	648.547769043773	1258.831988047652	231.147814933278	598.098986863601	1162.827423745465	47.842873213623	572.742306624651	1326.637591292041	118.934960862801	609.847606800279	1248.598204498178	43.211238734000	644.143377044216	1451.639408602229	77.445834000756	630.648835517820	773.422002787182	48.833479400270	406.469395649583	848.564901726585	40.175206950728	328.488108077037	934.304901768714	97.494420246247	355.428544210716	1059.850894650230	38.918837965341	329.399170999777	1139.255727363617	1080.836855608067	142.465012224575	1372.707606916141	1005.377637744091	216.515209895204	961.278583230968	1126.744349822349	724.411398363078	942.968960395660	865.259741840599	743.278663196622	
